<svg width="32" height="32" viewBox="0 0 32 32" fill="none" xmlns="http://www.w3.org/2000/svg">
<style>
    path {
        fill: #161616;
    }
    @media (prefers-color-scheme: dark) {
        path {
            fill: #ECECE3;
        }
    }
</style>
<path d="M23.6325 22.7992C23.8467 22.5575 24.0492 22.3067 24.2433 22.0425C24.2783 21.9942 24.3117 21.9442 24.3458 21.895C24.5333 21.6283 24.7125 21.3525 24.8775 21.0617C24.91 21.005 24.94 20.945 24.9717 20.8875C25.1292 20.6008 25.28 20.3042 25.4158 20C25.4492 19.9258 25.4775 19.8475 25.5092 19.7717C25.6342 19.4733 25.7542 19.1708 25.8592 18.855C25.8942 18.75 25.9217 18.6392 25.9542 18.5325C26.045 18.2342 26.1342 17.935 26.2042 17.6217C26.24 17.4692 26.265 17.3083 26.2967 17.1525C26.3533 16.8708 26.4133 16.5908 26.4567 16.2975C26.4917 16.0625 26.5117 15.8158 26.54 15.5733C26.5683 15.3308 26.5967 15.1183 26.6133 14.8808C26.6489 14.3914 26.6667 13.8872 26.6667 13.3683C26.6667 12.8494 26.6489 12.3444 26.6133 11.8533C26.5967 11.6158 26.5642 11.3917 26.54 11.1608C26.5158 10.93 26.4942 10.6717 26.4567 10.4367C26.4133 10.1425 26.3533 9.86333 26.2967 9.58167C26.265 9.42583 26.24 9.265 26.2042 9.1125C26.1308 8.79917 26.0417 8.5 25.9542 8.20167C25.9217 8.095 25.8933 7.98417 25.8592 7.87917C25.7542 7.5625 25.6342 7.26 25.5092 6.9625C25.4775 6.8875 25.4492 6.80833 25.4158 6.73417C25.28 6.42667 25.1292 6.13333 24.9717 5.84667C24.94 5.78917 24.9108 5.72917 24.8775 5.6725C24.7108 5.38417 24.5333 5.10917 24.3458 4.83917C24.3117 4.79 24.2783 4.74 24.2433 4.69167C24.0517 4.42833 23.8467 4.1775 23.6325 3.935C23.5925 3.88917 23.5492 3.84333 23.5117 3.79917C23.2967 3.56472 23.0708 3.3425 22.8342 3.1325C22.7833 3.08667 22.7317 3.04083 22.68 2.99583C22.4467 2.79361 22.2033 2.60167 21.95 2.42C21.8825 2.37167 21.8142 2.32417 21.745 2.2775C21.495 2.11083 21.245 1.94417 20.9775 1.79833C20.8883 1.74833 20.7975 1.70083 20.7067 1.6525C20.4508 1.51667 20.1892 1.38667 19.9175 1.26833C19.8025 1.2175 19.6833 1.17167 19.565 1.12417C19.3033 1.01917 19.0392 0.918333 18.7642 0.828333C18.6225 0.781666 18.4742 0.745 18.3292 0.7C18.0625 0.6225 17.7942 0.546667 17.515 0.483333C17.3483 0.445833 17.1817 0.416666 17.015 0.384166C16.7342 0.33 16.4542 0.275 16.1625 0.233333C16.0033 0.210833 15.8367 0.1975 15.6742 0.178333C15.355 0.141666 15.035 0.105834 14.7025 0.0850002L14.6567 0.0808334L13.3333 0V0.0349998C4.735 0.0349998 0 4.77 0 13.3683C0 21.9667 4.735 26.7017 13.3333 26.7017V26.7367L14.6575 26.6583L14.7033 26.6542C15.0367 26.6333 15.355 26.5967 15.675 26.5608C15.8417 26.5425 16.0083 26.5283 16.1633 26.5058C16.455 26.465 16.7358 26.41 17.0158 26.355C17.1825 26.3225 17.3492 26.2933 17.5158 26.2558C17.795 26.1925 18.0625 26.1158 18.33 26.0392C18.4758 25.9967 18.6233 25.9558 18.765 25.9108C19.04 25.8208 19.305 25.72 19.5658 25.615C19.6842 25.5675 19.8033 25.5217 19.9183 25.4708C20.19 25.3517 20.4517 25.2208 20.7075 25.0867C20.7983 25.0383 20.8892 24.9908 20.9783 24.9408C21.2433 24.7908 21.4983 24.63 21.7458 24.4617C21.8142 24.415 21.8833 24.3675 21.9508 24.3192C22.2042 24.1375 22.4475 23.9456 22.6808 23.7433C22.7325 23.6983 22.7842 23.6525 22.835 23.6067C23.0711 23.3939 23.2969 23.1717 23.5125 22.94C23.5525 22.8908 23.5925 22.845 23.6325 22.7992ZM2.5 13.3683C2.5 6.07833 6.04333 2.535 13.3333 2.535V24.2017C6.04333 24.2017 2.5 20.6583 2.5 13.3683Z" />
</svg>
